<svg xmlns="http://www.w3.org/2000/svg" xmlns:xlink="http://www.w3.org/1999/xlink" id="Layer_1" data-name="Layer 1" viewBox="0 0 351.03 302.66" width="406" height="306" class="illustration styles_illustrationTablet__1DWOa"><defs><linearGradient id="linear-gradient" x1="284.94" y1="-144.14" x2="82.82" y2="348.74" gradientUnits="userSpaceOnUse"><stop offset="0.01"/><stop offset="0.13" stop-opacity="0.69"/><stop offset="1" stop-opacity="0"/></linearGradient><linearGradient id="linear-gradient-2" x1="224.04" y1="-180.02" x2="166.6" y2="313.26" xlink:href="#linear-gradient"/><linearGradient id="linear-gradient-3" x1="210.98" y1="-156.71" x2="158.63" y2="292.83" xlink:href="#linear-gradient"/><linearGradient id="linear-gradient-4" x1="245.49" y1="-23.29" x2="152.01" y2="260.52" xlink:href="#linear-gradient"/><linearGradient id="linear-gradient-5" x1="223.47" y1="103.1" x2="257.38" y2="103.1" xlink:href="#linear-gradient"/><linearGradient id="linear-gradient-6" x1="786.96" y1="4088" x2="820.86" y2="4088" gradientTransform="translate(-329.39 4314.94) rotate(-162.31)" xlink:href="#linear-gradient"/><linearGradient id="linear-gradient-7" x1="-200.65" y1="4176.88" x2="-166.75" y2="4176.88" gradientTransform="translate(648.11 4366.62) rotate(171.63)" xlink:href="#linear-gradient"/><linearGradient id="linear-gradient-8" x1="-1220.74" y1="3822.45" x2="-1186.84" y2="3822.45" gradientTransform="translate(1687.9 3898.77) rotate(141.5)" xlink:href="#linear-gradient"/><linearGradient id="linear-gradient-9" x1="-1165.81" y1="3870.36" x2="-1131.91" y2="3870.36" gradientTransform="translate(1687.9 3898.77) rotate(141.5)" xlink:href="#linear-gradient"/><linearGradient id="linear-gradient-10" x1="127.24" y1="104.84" x2="140.33" y2="136.09" xlink:href="#linear-gradient"/><linearGradient id="linear-gradient-11" x1="1764.79" y1="890.37" x2="1798.69" y2="890.37" gradientTransform="translate(-1637.48 1013.14) rotate(-53.39)" xlink:href="#linear-gradient"/><linearGradient id="linear-gradient-12" x1="185.22" y1="110.61" x2="175.84" y2="47.91" xlink:href="#linear-gradient"/><linearGradient id="linear-gradient-13" x1="-1217.13" y1="3925.97" x2="-1183.23" y2="3925.97" gradientTransform="translate(1687.9 3898.77) rotate(141.5)" xlink:href="#linear-gradient"/><linearGradient id="linear-gradient-14" x1="202.18" y1="109.5" x2="211.9" y2="109.5" xlink:href="#linear-gradient"/><linearGradient id="linear-gradient-15" x1="173.19" y1="104.64" x2="182.91" y2="104.64" xlink:href="#linear-gradient"/><linearGradient id="linear-gradient-16" x1="126.97" y1="140.55" x2="136.69" y2="140.55" xlink:href="#linear-gradient"/><linearGradient id="linear-gradient-17" x1="195.46" y1="156.71" x2="205.18" y2="156.71" xlink:href="#linear-gradient"/><linearGradient id="linear-gradient-18" x1="228.91" y1="134.1" x2="238.63" y2="134.1" xlink:href="#linear-gradient"/><linearGradient id="linear-gradient-19" x1="168.47" y1="191.55" x2="178.19" y2="191.55" xlink:href="#linear-gradient"/><linearGradient id="linear-gradient-20" x1="106.16" y1="131.18" x2="115.88" y2="131.18" xlink:href="#linear-gradient"/><linearGradient id="linear-gradient-21" x1="117.74" y1="89.85" x2="142.49" y2="89.85" gradientUnits="userSpaceOnUse"><stop offset="0.01" stop-color="#fff"/><stop offset="0.13" stop-color="#fff" stop-opacity="0.69"/><stop offset="1" stop-color="#fff" stop-opacity="0"/></linearGradient><linearGradient id="linear-gradient-22" x1="254.51" y1="190.15" x2="263.15" y2="190.15" xlink:href="#linear-gradient-21"/><linearGradient id="linear-gradient-23" x1="104.16" y1="156.83" x2="134.55" y2="156.83" xlink:href="#linear-gradient-21"/><linearGradient id="linear-gradient-24" x1="182.13" y1="129.39" x2="206.4" y2="129.39" xlink:href="#linear-gradient-21"/><linearGradient id="linear-gradient-25" x1="198.96" y1="70.01" x2="227.89" y2="70.01" xlink:href="#linear-gradient-21"/><linearGradient id="linear-gradient-26" x1="148.36" y1="213.54" x2="183.51" y2="213.54" xlink:href="#linear-gradient-21"/><linearGradient id="linear-gradient-27" x1="101.35" y1="189.02" x2="131.86" y2="189.02" xlink:href="#linear-gradient-21"/><linearGradient id="linear-gradient-28" x1="189.44" y1="176.24" x2="222.01" y2="176.24" xlink:href="#linear-gradient-21"/><linearGradient id="linear-gradient-29" x1="84.5" y1="174.4" x2="272.94" y2="174.4" xlink:href="#linear-gradient"/><linearGradient id="linear-gradient-30" x1="80.45" y1="184.69" x2="269.45" y2="184.69" xlink:href="#linear-gradient"/><linearGradient id="linear-gradient-31" x1="158.63" y1="153.27" x2="170.46" y2="112.72" xlink:href="#linear-gradient"/><linearGradient id="linear-gradient-32" x1="152.26" y1="163.99" x2="162.69" y2="128.23" xlink:href="#linear-gradient"/></defs><title>Noodles</title><path d="M359.3,197.69c-6.79,37.95-30.35,69.49-58.72,87.52s-61.1,23.79-93.13,23.36c-18.25-.24-36.91-2.55-53.44-11.93-.83-.47-1.65-1-2.47-1.46-2.45-1.51-4.86-3.15-7.24-4.84-8.56-6.08-16.85-12.84-26.2-16.76-14.07-5.88-29.46-4.86-44-8.93C38,254.49,11.43,211,9.75,166S28.86,77,59.33,51.24C88,27,125.53,16.55,160.16,21.25c16.77,2.28,29.7-5.63,46-10.09C225.05,6,244.64,4.29,263.83,7.7c32.24,5.74,63.41,27.27,79.71,61.48,10,21,14,45.46,16.39,69.6C361,150.11,361,182,359.3,197.69Z" transform="translate(-9.66 -5.93)" fill="#F9A826" opacity="0.18" style="isolation: isolate;"/><ellipse cx="156.42" cy="169.26" rx="92.32" ry="100.52" fill="url(#linear-gradient)"/><circle cx="175.99" cy="143.79" r="106.85" fill="#F9A826"/><path d="M292.49,149.71A106.51,106.51,0,0,1,258.36,228q-2.19,2-4.49,3.94c-.37.33-.74.63-1.12.93-1.61,1.3-3.27,2.56-5,3.76A106.88,106.88,0,0,1,80.45,130.89c.59-3.36,1.35-6.66,2.25-9.91.55-2,1.15-3.91,1.8-5.83,1.08-3.13,2.29-6.22,3.65-9.22a106.87,106.87,0,0,1,204.34,43.78Z" transform="translate(-9.66 -5.93)" fill="url(#linear-gradient-2)"/><circle cx="175.99" cy="143.79" r="97.37" fill="url(#linear-gradient-3)"/><path d="M126.88,84.59A48.51,48.51,0,0,0,117,98.9c-2.11,5-3,10.36-4.84,15.44s-4.47,9.8-5.89,15c-1.79,6.56-1.47,13.5-.52,20.23a111.58,111.58,0,0,0,33.46,64.79,50,50,0,0,0,13,9.42c7.37,3.42,15.7,3.94,23.8,4.4,12.31.7,24.63,1.39,37,1.27,9.6-.09,19.54-.77,28.06-5.2,12.08-6.28,19.45-19.31,22.42-32.6s2.16-27.09,1.81-40.7c-.32-12.66-.26-25.5-3.55-37.73C249.93,69.51,199.25,50,158.63,64.33A81.29,81.29,0,0,0,126.88,84.59Z" transform="translate(-9.66 -5.93)" fill="#F9A826"/><path d="M126.88,84.59A48.51,48.51,0,0,0,117,98.9c-2.11,5-3,10.36-4.84,15.44s-4.47,9.8-5.89,15c-1.79,6.56-1.47,13.5-.52,20.23a111.58,111.58,0,0,0,33.46,64.79,50,50,0,0,0,13,9.42c7.37,3.42,15.7,3.94,23.8,4.4,12.31.7,24.63,1.39,37,1.27,9.6-.09,19.54-.77,28.06-5.2,12.08-6.28,19.45-19.31,22.42-32.6s2.16-27.09,1.81-40.7c-.32-12.66-.26-25.5-3.55-37.73C249.93,69.51,199.25,50,158.63,64.33A81.29,81.29,0,0,0,126.88,84.59Z" transform="translate(-9.66 -5.93)" fill="url(#linear-gradient-4)"/><path d="M125.71,175.73a29.13,29.13,0,0,1-9.29-1.65c-11.92-4-21.28-13.89-23.84-25.12-2.83-12.44,3.11-25.87,13.83-31.22a33.94,33.94,0,0,1,13.15-3.2,55.64,55.64,0,0,1,28.76,5.94L146.5,124a51.62,51.62,0,0,0-26.68-5.51,29.9,29.9,0,0,0-11.62,2.79c-9,4.48-14.11,16.23-11.72,26.75,2.26,9.9,10.59,18.62,21.22,22.22,3.53,1.19,8.7,2.25,13.31.56,3.73-1.38,6.74-4.43,9-6.94a70.57,70.57,0,0,0,16.77-36.41c.64-4.51.84-9.2,1-13.73a129.88,129.88,0,0,1,1.31-15.63c1.15-7,4.69-19.75,15.42-25.93,6.75-3.88,14.64-4.24,22.81-4.28,6.5,0,12.35.09,18.05,1.86,6.85,2.14,12.09,6.53,14.36,12L226,83.35c-1.82-4.4-6.15-7.95-11.86-9.74C209,72,203.5,71.9,197.33,71.93c-7.61,0-14.93.35-20.83,3.75C167.19,81,164.06,92.45,163,98.79a128.05,128.05,0,0,0-1.25,15.15c-.2,4.63-.41,9.41-1.08,14.12A74.59,74.59,0,0,1,143,166.56c-2.52,2.86-6,6.36-10.56,8A19.37,19.37,0,0,1,125.71,175.73Z" transform="translate(-9.66 -5.93)" fill="#F9A826"/><path d="M237.7,87.94a2.93,2.93,0,0,0-2.56-1.41,13.83,13.83,0,0,0-3.6.46l-1.26.26c-8.19,1.56-16.29-.63-24.13-2.75-1.75-.48-3.5-1-5.24-1.38-11.69-2.87-20.42-1.87-25.93,3l-2.64-3c6.55-5.75,16.48-7,29.52-3.84,1.78.43,3.56.91,5.34,1.4,7.39,2,15,4.06,22.34,2.68.39-.07.77-.16,1.16-.24a16.92,16.92,0,0,1,4.68-.55,6.7,6.7,0,0,1,6.08,4Z" transform="translate(-9.66 -5.93)" fill="#F9A826"/><path d="M174.41,96.77l-2.19-3.35c8.23-5.38,18.91-7.78,31.76-7.15a179.88,179.88,0,0,1,21.45,2.8c3.36.58,6.83,1.18,10.25,1.66,2.29.33,4.68.57,6.43-.36L244,93.9c-2.81,1.5-5.93,1.21-8.88.79-3.47-.49-7-1.09-10.36-1.68a177.14,177.14,0,0,0-21-2.75C191.8,89.68,181.92,91.86,174.41,96.77Z" transform="translate(-9.66 -5.93)" fill="#F9A826"/><path d="M136,186.92a8.54,8.54,0,0,1-7.6-3.92l3.45-2c1.14,1.94,4.19,2.34,6.37,1.58,2.72-.95,5-3.29,7-5.35,4.64-4.7,9.43-9.57,12.25-15.52,3.58-7.57,3.67-16,3.77-24.93.07-6.38.14-13,1.59-19.32,1.22-5.29,3.28-9.53,6.14-12.61,7.12-7.65,18.62-8.21,28.85-8.15l45,.31,0,4-45-.31c-9.8-.07-19.88.41-25.89,6.87a23.39,23.39,0,0,0-5.17,10.78c-1.35,5.92-1.42,12.3-1.49,18.47-.1,9-.2,18.24-4.16,26.6-3.1,6.56-8.37,11.91-13,16.62-2.22,2.26-5,5.06-8.59,6.32A11.07,11.07,0,0,1,136,186.92Z" transform="translate(-9.66 -5.93)" fill="#F9A826"/><path d="M121.26,162.48c-4.8,0-9.77-2.88-13.86-8.1-3.09-3.95-4.41-7.55-4.05-11,.33-3.16,2.1-6.24,5.42-9.4a24.89,24.89,0,0,1,7.26-5c5.55-2.38,11.5-1.79,17.25-1.22,4.63.46,9,.89,13.14-.13l1,3.89c-4.8,1.18-9.73.69-14.5.22-5.48-.55-10.66-1.06-15.27.92a20.85,20.85,0,0,0-6.08,4.24c-2.6,2.48-4,4.75-4.2,6.92-.25,2.39.8,5,3.22,8.14,1.72,2.2,6.32,7.23,11.75,6.5l.54,4A12,12,0,0,1,121.26,162.48Z" transform="translate(-9.66 -5.93)" fill="#F9A826"/><path d="M131.4,160.09l-7-3.38c-2-1-6.77-3.31-7.08-7.81-.2-3,1.63-5.78,5.13-8,8.76-5.41,20.06-4.62,28.32-4l-.28,4c-10-.7-18.85-.92-25.93,3.45-.8.5-3.38,2.26-3.24,4.28s2.65,3.41,4.83,4.48l7,3.39Z" transform="translate(-9.66 -5.93)" fill="#F9A826"/><path d="M156.56,182.79l-2.29-3.28c6.85-4.77,12-13.1,14.4-23.46,2-8.48,2.17-17.48,2.34-26.18l.06-2.87a28.47,28.47,0,0,1,1-7.92c2.57-8.27,11-12.41,17.66-14.43,17.41-5.29,37.46-3.08,55,6.06,4.38,2.28,9.65,5.62,11.57,11.28,1.78,5.23,0,10.89-1.26,15-2.49,8-5.59,18-13,24.47-6.86,6-17.2,8.66-29.9,7.69-9.08-.69-16.11-2.87-21.51-6.65-7.06-4.94-11-12.94-10.11-20.36l4,.49c-.74,6,2.57,12.49,8.43,16.59,4.8,3.36,11.18,5.3,19.53,5.94,8.09.62,19.33,0,27-6.71,6.55-5.73,9.46-15.11,11.8-22.65,1.46-4.67,2.55-8.84,1.29-12.55-1.46-4.31-5.91-7.08-9.62-9-16.64-8.66-35.6-10.77-52-5.78-4.68,1.42-12.85,4.85-15,11.79a25.14,25.14,0,0,0-.78,6.81l-.06,2.86c-.17,8.92-.35,18.13-2.44,27C169.91,168.28,164.22,177.46,156.56,182.79Z" transform="translate(-9.66 -5.93)" fill="#F9A826"/><path d="M212.87,155.28c-6.6,0-12-1.58-16.21-4.73-5.22-3.92-8.13-10.17-10.47-15.19l3.63-1.69c2.26,4.86,4.82,10.36,9.24,13.69s10.87,4.57,19,3.59c16.93-2,21.53-11.3,22.54-14.09a11.59,11.59,0,0,0,.1-8.22c-1.23-3-4.19-5.51-9-7.71a55.34,55.34,0,0,0-38.32-2.62c-2.76.83-6.71,2.27-9.13,5.13-1.86,2.2-2.86,5.9-1.07,8.44l-3.27,2.31c-3-4.23-1.61-9.91,1.28-13.33,3.11-3.68,7.8-5.4,11-6.38a59.37,59.37,0,0,1,41.12,2.81c5.81,2.65,9.43,5.86,11.07,9.82a15.44,15.44,0,0,1,0,11.1c-3.21,8.91-12.86,15.15-25.82,16.71A47.37,47.37,0,0,1,212.87,155.28Z" transform="translate(-9.66 -5.93)" fill="#F9A826"/><path d="M223.73,137.69a35.18,35.18,0,0,0-4.13-.05c-3.34.08-6.8.17-9.94-1.65a18.17,18.17,0,0,1-3.79-3.17c-.39-.4-.79-.8-1.2-1.18a18.87,18.87,0,0,0-4.41-3l1.79-3.58a22.65,22.65,0,0,1,5.34,3.7c.46.42.89.86,1.33,1.3a15,15,0,0,0,2.94,2.52c2.16,1.25,4.92,1.18,7.84,1.11a39.19,39.19,0,0,1,4.59.07Z" transform="translate(-9.66 -5.93)" fill="#F9A826"/><path d="M142.12,201.7c-13.45,0-27.07-7-33.85-18.7l3.46-2c8.34,14.41,28.21,20.82,43.4,14a71.93,71.93,0,0,0,9.92-5.83c4.49-3,9.13-6,14.5-7.62,6.52-1.92,13.28-1.41,19.81-.93a84.21,84.21,0,0,0,12,.34,41.1,41.1,0,0,0,29-15.29l3.14,2.48A45.15,45.15,0,0,1,211.6,185a87.18,87.18,0,0,1-12.54-.34c-6.46-.48-12.56-.93-18.38.78-4.79,1.41-9,4.18-13.42,7.12a75.61,75.61,0,0,1-10.49,6.14A35.79,35.79,0,0,1,142.12,201.7Z" transform="translate(-9.66 -5.93)" fill="#F9A826"/></svg>